<?xml version="1.0" standalone="no"?>
<svg xmlns="http://www.w3.org/2000/svg" viewBox="0 0 69.504 36" width="69.504" height="36"><g fill="#0aab0d" color="#0aab0d" transform="translate(41.504, 3.9999999999999982) scale(0.2800001)"><svg width="100.0" height="100.0" x="0.0" y="0.0" viewBox="0 0 100 100"><path style="" d="M0,49.951l17.725,17.7c0,0,9.942-9.937,19.732-19.727V100h25.067V47.925l19.751,19.751L100,49.951  L50.006,0L0,49.951z" fill="currentColor"></path></svg></g><path fill="#3F51B5" fill-rule="nonzero" d="M8.90 0.60Q13.18 0.60 15.50 2.78Q17.83 4.97 17.83 9.14L17.83 9.14Q17.83 13.32 15.50 15.50Q13.18 17.69 8.90 17.69L8.90 17.69Q4.63 17.69 2.32 15.52Q0 13.34 0 9.14L0 9.14Q0 4.94 2.32 2.77Q4.63 0.60 8.90 0.60L8.90 0.60ZM8.90 4.56Q7.20 4.56 6.31 5.59Q5.42 6.62 5.42 8.38L5.42 8.38L5.42 9.91Q5.42 11.66 6.31 12.70Q7.20 13.73 8.90 13.73L8.90 13.73Q10.61 13.73 11.51 12.70Q12.41 11.66 12.41 9.91L12.41 9.91L12.41 8.38Q12.41 6.62 11.51 5.59Q10.61 4.56 8.90 4.56L8.90 4.56ZM25.13 6.05Q25.90 5.28 26.93 4.86Q27.96 4.44 29.09 4.44L29.09 4.44Q31.30 4.44 32.40 5.66Q33.50 6.89 33.50 9.19L33.50 9.19L33.50 17.40L28.73 17.40L28.73 9.77Q28.73 8.95 28.31 8.46Q27.89 7.97 27.12 7.97L27.12 7.97Q26.23 7.97 25.68 8.54Q25.13 9.12 25.13 9.96L25.13 9.96L25.13 17.40L20.35 17.40L20.35 0L25.13 0L25.13 6.05Z" transform="translate(0, 9.156)"></path></svg>